<?xml version="1.0" encoding="UTF-8" standalone="no"?>
<svg
   xmlns:dc="http://purl.org/dc/elements/1.1/"
   xmlns:cc="http://creativecommons.org/ns#"
   xmlns:rdf="http://www.w3.org/1999/02/22-rdf-syntax-ns#"
   xmlns:svg="http://www.w3.org/2000/svg"
   xmlns="http://www.w3.org/2000/svg"
   xmlns:sodipodi="http://sodipodi.sourceforge.net/DTD/sodipodi-0.dtd"
   xmlns:inkscape="http://www.inkscape.org/namespaces/inkscape"
   viewBox="0 0 283 68"
   version="1.1"
   id="svg6"
   sodipodi:docname="logo.svg"
   width="283"
   height="68"
   inkscape:version="0.92.4 (5da689c313, 2019-01-14)">
  <metadata
     id="metadata12">
    <rdf:RDF>
      <cc:Work
         rdf:about="">
        <dc:format>image/svg+xml</dc:format>
        <dc:type
           rdf:resource="http://purl.org/dc/dcmitype/StillImage" />
        <dc:title />
      </cc:Work>
    </rdf:RDF>
  </metadata>
  <defs
     id="defs10" />
  <sodipodi:namedview
     pagecolor="#ffffff"
     bordercolor="#666666"
     borderopacity="1"
     objecttolerance="10"
     gridtolerance="10"
     guidetolerance="10"
     inkscape:pageopacity="0"
     inkscape:pageshadow="2"
     inkscape:window-width="1920"
     inkscape:window-height="1017"
     id="namedview8"
     showgrid="false"
     inkscape:snap-page="true"
     inkscape:zoom="3.4623848"
     inkscape:cx="113.56397"
     inkscape:cy="36.306202"
     inkscape:window-x="-8"
     inkscape:window-y="-8"
     inkscape:window-maximized="1"
     inkscape:current-layer="svg6"
     inkscape:snap-object-midpoints="true" />
  <rect
     style="opacity:1;fill:#2679dc;fill-opacity:1;stroke:none;stroke-width:0.30126584;stroke-opacity:1"
     id="rect4538"
     width="68"
     height="68"
     x="-1.6065014e-06"
     y="-2.6662065e-08"
     rx="11.386426"
     inkscape:export-xdpi="142.03461"
     inkscape:export-ydpi="142.03461" />
  <path
     style="opacity:1;fill:#ffffff;fill-opacity:1;stroke:none;stroke-width:0.33685625;stroke-opacity:1"
     d="m 46.234956,10.464691 c -0.690142,0 -1.307322,0.271383 -1.813937,0.807315 l -4.082459,4.2359 11.438647,11.057218 4.119731,-4.316203 c 0.499264,-0.499254 0.689728,-1.153757 0.689728,-1.851231 0,-0.690141 -0.272221,-1.349975 -0.771434,-1.812518 l -7.730463,-7.386297 c -0.535967,-0.499252 -1.15235,-0.770891 -1.849813,-0.734184 z m -9.551571,8.82455 -21.49065,22.333827 -2.847847,10.90235 c -0.888449,3.465341 -1.160006,5.124748 -0.734175,5.007361 0.425806,-0.110128 2.385308,-0.770277 5.968116,-1.922928 1.541765,-0.506602 3.040554,-1.006396 4.545641,-1.505651 1.505062,-0.499251 3.039097,-0.961944 4.544188,-1.461195 L 48.120616,30.302004 Z"
     id="rect4561"
     inkscape:connector-curvature="0"
     inkscape:export-xdpi="142.03461"
     inkscape:export-ydpi="142.03461" />
  <g
     aria-label="tadreeb"
     style="font-style:normal;font-weight:normal;font-size:57.63167191px;line-height:1.25;font-family:sans-serif;letter-spacing:0px;word-spacing:0px;fill:#4d4d4d;fill-opacity:1;stroke:none;stroke-width:1.44079161"
     id="text4593">
    <path
       d="m 94.36187,45.756855 q -0.115264,1.152633 -0.115264,1.440791 0,1.383161 0.576317,1.959477 0.576317,0.576317 1.72895,0.576317 1.498424,0 3.688427,-1.03737 l 2.19,5.359745 q -1.78658,1.095002 -3.91895,1.671319 -2.07474,0.576317 -4.034217,0.576317 -4.091849,0 -6.281852,-2.132372 -2.132372,-2.190004 -2.132372,-6.224221 0,-1.03737 0.172895,-2.247635 l 2.132372,-15.041866 h -4.495271 l 0.806844,-5.820799 h 4.84106 l 1.901845,-6.858169 6.858169,-0.806844 -1.03737,7.665013 h 7.031067 l -1.67132,5.820799 h -6.16659 z"
       style="font-style:italic;font-variant:normal;font-weight:600;font-stretch:normal;font-family:'Fira Sans';-inkscape-font-specification:'Fira Sans Semi-Bold Italic';fill:#4d4d4d;stroke-width:1.44079161"
       id="path823" />
    <path
       d="m 121.76933,23.914451 q 6.33949,0 12.04502,3.054479 l -2.88158,20.055821 q -0.11527,1.037371 -0.11527,1.383161 0,0.922106 0.34579,1.498423 0.40343,0.518685 1.32553,0.922107 l -2.30526,5.359745 q -5.64791,-0.576316 -6.68528,-5.071587 -3.74606,5.186851 -9.1058,5.186851 -4.7258,0 -7.31922,-3.227374 -2.59343,-3.285005 -2.59343,-8.817646 0,-4.783429 1.78658,-9.451594 1.78658,-4.668165 5.64791,-7.780276 3.91895,-3.11211 9.85501,-3.11211 z m -0.17289,5.936062 q -2.99685,0 -4.95633,2.190004 -1.95947,2.190003 -2.88158,5.53264 -0.86448,3.285006 -0.86448,6.685274 0,5.936062 3.91896,5.936062 1.78658,0 3.285,-1.152633 1.49843,-1.152634 3.05448,-3.400269 l 2.19001,-15.099498 q -1.67132,-0.69158 -3.74606,-0.69158 z"
       style="font-style:italic;font-variant:normal;font-weight:600;font-stretch:normal;font-family:'Fira Sans';-inkscape-font-specification:'Fira Sans Semi-Bold Italic';fill:#4d4d4d;stroke-width:1.44079161"
       id="path825" />
    <path
       d="m 169.21821,12.676275 -5.9937,42.705069 h -7.14632 l 0.0576,-4.495271 q -1.67132,2.478162 -3.97659,3.976586 -2.24763,1.440792 -5.12922,1.440792 -4.72579,0 -7.20396,-3.227374 -2.42053,-3.285005 -2.42053,-9.048173 0,-4.552902 1.55606,-9.163435 1.55605,-4.668166 4.78343,-7.780276 3.285,-3.169742 8.18369,-3.169742 2.24764,0 4.09185,0.864475 1.84422,0.864475 3.11211,2.305267 L 161.26504,11.8118 Z m -15.56056,17.289502 q -2.82395,0 -4.61053,2.305266 -1.72895,2.247636 -2.47816,5.532641 -0.74921,3.285005 -0.74921,6.397115 0,3.227374 0.97974,4.610534 0.97973,1.38316 2.76632,1.38316 1.95947,0 3.63079,-1.556055 1.72895,-1.556055 3.51553,-4.380007 l 1.67132,-11.756861 q -1.90184,-2.535793 -4.7258,-2.535793 z"
       style="font-style:italic;font-variant:normal;font-weight:600;font-stretch:normal;font-family:'Fira Sans';-inkscape-font-specification:'Fira Sans Semi-Bold Italic';fill:#4d4d4d;stroke-width:1.44079161"
       id="path827" />
    <path
       d="m 190.94174,23.972083 q 1.55606,0 3.05448,0.461053 l -2.30527,7.953171 q -1.26789,-0.403422 -2.59342,-0.403422 -2.65106,0 -4.49527,2.247635 -1.78658,2.247635 -3.28501,6.512379 l -2.07474,14.638445 h -8.06843 l 4.26474,-30.544786 h 6.97343 l -0.17289,5.820799 q 1.61369,-3.285006 3.86132,-4.956324 2.30527,-1.72895 4.84106,-1.72895 z"
       style="font-style:italic;font-variant:normal;font-weight:600;font-stretch:normal;font-family:'Fira Sans';-inkscape-font-specification:'Fira Sans Semi-Bold Italic';fill:#4d4d4d;stroke-width:1.44079161"
       id="path829" />
    <path
       d="m 219.89175,32.15578 q 0,5.820799 -5.41738,8.529488 -5.35974,2.651056 -14.23502,3.515531 0.28816,5.936063 5.70554,5.936063 2.01711,0 3.86132,-0.69158 1.84421,-0.69158 4.03422,-2.132372 l 2.99684,4.956324 q -5.59027,4.034217 -11.87212,4.034217 -6.28185,0 -9.62449,-3.400269 -3.28501,-3.4579 -3.28501,-9.393963 0,-4.610533 1.72895,-9.105804 1.72895,-4.49527 5.53264,-7.492117 3.80369,-2.996847 9.68213,-2.996847 5.18685,0 8.0108,2.362899 2.88158,2.305266 2.88158,5.87843 z m -19.24898,6.858169 q 5.70554,-0.461053 8.3566,-2.132372 2.70868,-1.72895 2.70868,-4.380007 0,-1.210265 -0.80684,-2.07474 -0.74921,-0.864475 -2.47816,-0.864475 -3.28501,0 -5.18685,2.708688 -1.90185,2.708689 -2.59343,6.742906 z"
       style="font-style:italic;font-variant:normal;font-weight:600;font-stretch:normal;font-family:'Fira Sans';-inkscape-font-specification:'Fira Sans Semi-Bold Italic';fill:#4d4d4d;stroke-width:1.44079161"
       id="path831" />
    <path
       d="m 249.94577,32.15578 q 0,5.820799 -5.41738,8.529488 -5.35975,2.651056 -14.23502,3.515531 0.28816,5.936063 5.70553,5.936063 2.01711,0 3.86132,-0.69158 1.84422,-0.69158 4.03422,-2.132372 l 2.99685,4.956324 q -5.59027,4.034217 -11.87213,4.034217 -6.28185,0 -9.62448,-3.400269 -3.28501,-3.4579 -3.28501,-9.393963 0,-4.610533 1.72895,-9.105804 1.72895,-4.49527 5.53264,-7.492117 3.80369,-2.996847 9.68212,-2.996847 5.18685,0 8.0108,2.362899 2.88159,2.305266 2.88159,5.87843 z m -19.24898,6.858169 q 5.70553,-0.461053 8.35659,-2.132372 2.70869,-1.72895 2.70869,-4.380007 0,-1.210265 -0.80684,-2.07474 -0.74922,-0.864475 -2.47817,-0.864475 -3.285,0 -5.18685,2.708688 -1.90184,2.708689 -2.59342,6.742906 z"
       style="font-style:italic;font-variant:normal;font-weight:600;font-stretch:normal;font-family:'Fira Sans';-inkscape-font-specification:'Fira Sans Semi-Bold Italic';fill:#4d4d4d;stroke-width:1.44079161"
       id="path833" />
    <path
       d="m 272.95792,23.914451 q 4.49527,0 6.9158,3.11211 2.42053,3.112111 2.42053,8.817646 0,4.956324 -1.61368,9.624489 -1.61369,4.610534 -5.53264,7.722644 -3.91896,3.112111 -10.31607,3.112111 -3.11211,0 -5.9937,-0.633949 -2.88158,-0.576317 -6.10895,-1.786582 l 5.76316,-41.206645 8.1837,-0.922107 -2.19,15.791078 q 1.78658,-1.72895 3.97658,-2.651057 2.19001,-0.979738 4.49527,-0.979738 z m -2.99684,6.108957 q -3.28501,0 -6.33949,3.746059 l -2.19,15.675815 q 2.01711,0.749211 4.20711,0.749211 2.88158,0 4.7258,-2.190003 1.90184,-2.247635 2.76632,-5.532641 0.86447,-3.285005 0.86447,-6.627642 0,-3.169742 -1.095,-4.49527 -1.03737,-1.325529 -2.93921,-1.325529 z"
       style="font-style:italic;font-variant:normal;font-weight:600;font-stretch:normal;font-family:'Fira Sans';-inkscape-font-specification:'Fira Sans Semi-Bold Italic';fill:#4d4d4d;stroke-width:1.44079161"
       id="path835" />
  </g>
</svg>
